<?xml version="1.0" encoding="UTF-8" standalone="no"?>
<!DOCTYPE svg PUBLIC "-//W3C//DTD SVG 1.1//EN" "http://www.w3.org/Graphics/SVG/1.1/DTD/svg11.dtd">
<svg width="100%" height="100%" viewBox="0 0 1000 1000" version="1.1" xmlns="http://www.w3.org/2000/svg" xmlns:xlink="http://www.w3.org/1999/xlink" xml:space="preserve" xmlns:serif="http://www.serif.com/" style="fill-rule:evenodd;clip-rule:evenodd;stroke-linejoin:round;stroke-miterlimit:2;">
    <g transform="matrix(0.488015,0,-3.37699e-33,0.488015,-132.28,-13.101)">
        <path d="M848.687,662.217L1264.68,1347.17L1265.15,1347.94L1265.62,1348.71L1266.1,1349.48L1266.57,1350.24L1267.05,1351L1267.53,1351.76L1268.01,1352.51L1268.49,1353.27L1268.98,1354.02L1269.46,1354.77L1269.95,1355.52L1270.44,1356.27L1270.94,1357.01L1271.43,1357.75L1271.93,1358.49L1272.43,1359.23L1272.93,1359.96L1273.43,1360.7L1273.94,1361.43L1274.45,1362.16L1274.96,1362.89L1275.47,1363.61L1275.98,1364.34L1276.5,1365.06L1277.01,1365.78L1277.53,1366.49L1278.05,1367.21L1278.58,1367.92L1279.1,1368.63L1279.63,1369.34L1280.15,1370.05L1280.69,1370.75L1281.22,1371.46C1281.22,1371.46 1281.22,1371.46 1281.22,1371.46C1292.78,1386.65 1305.67,1400.38 1319.63,1412.55L1320.28,1413.11L1320.92,1413.67L1321.57,1414.23L1322.22,1414.78L1322.87,1415.34L1323.53,1415.89L1324.18,1416.43L1324.84,1416.98L1325.49,1417.52L1326.15,1418.06L1326.81,1418.6L1327.47,1419.14L1328.14,1419.67L1328.8,1420.21L1329.47,1420.74L1330.13,1421.27L1330.8,1421.79L1331.47,1422.32L1332.14,1422.84L1332.82,1423.36L1333.49,1423.87L1334.17,1424.39L1334.84,1424.9L1335.52,1425.41L1336.2,1425.92L1336.88,1426.42L1337.57,1426.93L1338.25,1427.43L1338.93,1427.93L1339.62,1428.42L1340.31,1428.92L1341,1429.41L1341.69,1429.9L1342.38,1430.39L1343.08,1430.87L1343.77,1431.36L1344.46,1431.84L1345.16,1432.32L1345.86,1432.8L1346.56,1433.27L1347.26,1433.74L1347.96,1434.21L1348.67,1434.68L1349.37,1435.14L1350.08,1435.61L1350.79,1436.07L1351.5,1436.53L1352.2,1436.98L1352.92,1437.44L1353.63,1437.89L1354.34,1438.34L1355.06,1438.79L1355.77,1439.23L1356.49,1439.67L1357.21,1440.12L1357.93,1440.55L1358.65,1440.99L1359.37,1441.42L1360.09,1441.86L1360.82,1442.28L1361.54,1442.71L1362.27,1443.14L1363,1443.56L1363.73,1443.98L1364.46,1444.4L1365.19,1444.81L1365.92,1445.23L1366.65,1445.64L1367.39,1446.05L1368.12,1446.45L1368.86,1446.86L1369.6,1447.26L1370.34,1447.66L1371.08,1448.05L1371.82,1448.45L1372.56,1448.84L1373.31,1449.23L1374.05,1449.62L1374.8,1450.01L1375.54,1450.39L1376.29,1450.77L1377.04,1451.15L1377.79,1451.53L1378.54,1451.9L1379.29,1452.27L1380.04,1452.64L1380.8,1453.01L1381.55,1453.37L1382.31,1453.74L1383.06,1454.1L1383.82,1454.45L1384.58,1454.81L1385.34,1455.16L1386.1,1455.51L1386.86,1455.86L1387.62,1456.21L1388.39,1456.55L1389.15,1456.89L1389.92,1457.23L1390.68,1457.57L1391.45,1457.91L1392.22,1458.24L1392.99,1458.57L1393.76,1458.9L1394.53,1459.22L1395.3,1459.54L1396.07,1459.87L1396.85,1460.18L1397.62,1460.5L1398.4,1460.81L1399.17,1461.12L1399.95,1461.43L1400.73,1461.74L1401.51,1462.04L1402.29,1462.35L1403.07,1462.64L1403.85,1462.94L1404.63,1463.24L1405.41,1463.53L1406.2,1463.82L1406.98,1464.11L1407.77,1464.39L1408.56,1464.68L1409.34,1464.96L1410.13,1465.24L1410.92,1465.51L1411.71,1465.78L1412.5,1466.06L1413.29,1466.32L1414.08,1466.59L1414.87,1466.86L1415.67,1467.12L1416.46,1467.38L1417.26,1467.63L1418.05,1467.89L1418.85,1468.14L1419.64,1468.39L1420.44,1468.64L1421.24,1468.88L1422.04,1469.12L1422.84,1469.36L1423.64,1469.6L1424.44,1469.84L1425.24,1470.07L1426.04,1470.3L1426.85,1470.53L1427.65,1470.76L1428.45,1470.98L1429.26,1471.2L1430.07,1471.42L1430.87,1471.63L1431.68,1471.85L1432.49,1472.06L1433.3,1472.27L1434.1,1472.48L1434.91,1472.68L1435.72,1472.88L1436.53,1473.08L1437.35,1473.28L1438.16,1473.47L1438.97,1473.66L1439.78,1473.85L1440.6,1474.04L1441.41,1474.23L1442.23,1474.41L1443.04,1474.59L1443.86,1474.77L1444.67,1474.94L1445.49,1475.11L1446.31,1475.28L1447.12,1475.45L1447.94,1475.62L1448.76,1475.78L1449.58,1475.94L1450.4,1476.1L1451.22,1476.25L1452.04,1476.41L1452.86,1476.56L1453.68,1476.7L1454.51,1476.85L1455.33,1476.99L1456.15,1477.13L1456.98,1477.27L1457.8,1477.41L1458.62,1477.54L1459.45,1477.67L1460.28,1477.8L1461.1,1477.93L1461.93,1478.05L1462.75,1478.17L1463.58,1478.29L1464.41,1478.41L1465.24,1478.52L1466.07,1478.63L1466.89,1478.74L1467.72,1478.85L1468.55,1478.95L1469.38,1479.06L1470.21,1479.15L1471.04,1479.25L1471.87,1479.35L1472.7,1479.44L1473.54,1479.53L1474.37,1479.61L1475.2,1479.7L1476.03,1479.78L1476.86,1479.86L1477.7,1479.93L1478.53,1480.01L1479.36,1480.08C1479.36,1480.08 1479.37,1480.08 1479.37,1480.08C1532.18,1484.55 1586.69,1474.02 1636.21,1446.87L1637,1446.44L1637.78,1446L1638.56,1445.57L1639.34,1445.13L1640.11,1444.69L1640.89,1444.24L1641.67,1443.8L1642.44,1443.35L1643.22,1442.89L1643.99,1442.44L1644.77,1441.98L1645.54,1441.52L1646.31,1441.06C1646.55,1440.91 1646.82,1440.75 1647.08,1440.59C1647.08,1440.59 1647.08,1440.59 1647.08,1440.59L1231.08,755.635C1151.28,624.243 980.079,582.419 848.687,662.217C848.687,662.217 848.687,662.217 848.687,662.217ZM1677.59,1422.65C1677.59,1422.65 1625,1335 1568.23,1240.41C1539.91,1193.22 1539.17,1134.45 1566.28,1086.57C1593.39,1038.68 1644.16,1009.08 1699.19,1009.08L1936.4,1009.08C1828.26,1190.36 1701.03,1409.53 1677.59,1422.65ZM598.933,622.302L446.563,622.302L479.008,673.063L745.342,1111.59C825.141,1242.98 996.344,1284.81 1127.74,1205.01C1127.74,1205.01 1127.74,1205.01 1127.74,1205.01C1127.74,1205.01 975.425,954.224 854.815,755.635C799.148,663.976 698.998,615.905 598.933,622.302ZM1715.77,840.644C1746.15,791.213 1798.13,759.082 1855.93,754.013C1913.73,748.944 1970.52,771.537 2009.04,814.926C2078.93,893.654 2144.67,967.71 2144.67,967.71L1725.04,967.71C1707.35,967.71 1691.04,958.144 1682.4,942.701C1673.77,927.259 1674.16,908.355 1683.42,893.281C1693.36,877.11 1704.34,859.237 1715.77,840.644Z" style="fill:white;"/>
    </g>
</svg>
