<?xml version="1.0" encoding="UTF-8" standalone="no"?>
<!DOCTYPE svg PUBLIC "-//W3C//DTD SVG 1.1//EN" "http://www.w3.org/Graphics/SVG/1.1/DTD/svg11.dtd">
<svg width="100%" height="100%" viewBox="0 0 3000 1000" version="1.1" xmlns="http://www.w3.org/2000/svg" xmlns:xlink="http://www.w3.org/1999/xlink" xml:space="preserve" xmlns:serif="http://www.serif.com/" style="fill-rule:evenodd;clip-rule:evenodd;stroke-linejoin:round;stroke-miterlimit:2;">
    <g transform="matrix(0.87547,0,-1.0901e-32,0.87547,504.431,-1467.59)">
        <g transform="matrix(492.01,0,0,492.01,500.234,2394.91)">
            <path d="M0.669,-0.568C0.665,-0.472 0.652,-0.376 0.641,-0.308C0.629,-0.235 0.614,-0.168 0.596,-0.109L0.436,-0.566L0.375,-0.56C0.375,-0.555 0.374,-0.544 0.372,-0.528C0.37,-0.511 0.368,-0.496 0.366,-0.481C0.364,-0.467 0.362,-0.45 0.359,-0.431C0.356,-0.412 0.353,-0.39 0.348,-0.365C0.343,-0.34 0.338,-0.313 0.33,-0.284C0.323,-0.255 0.314,-0.225 0.305,-0.196C0.296,-0.166 0.285,-0.136 0.274,-0.108L0.144,-0.568L0,-0.568L0.177,-0.001L0.26,-0.001C0.299,-0.11 0.338,-0.229 0.38,-0.326L0.497,-0.001L0.582,-0.001C0.649,-0.212 0.722,-0.423 0.787,-0.568L0.669,-0.568Z" style="fill:white;fill-rule:nonzero;"/>
        </g>
        <g transform="matrix(492.01,0,0,492.01,867.735,2394.91)">
            <path d="M0.228,-0.083C0.22,-0.074 0.211,-0.067 0.2,-0.061C0.188,-0.055 0.179,-0.053 0.17,-0.053C0.156,-0.053 0.144,-0.059 0.134,-0.072C0.124,-0.084 0.12,-0.102 0.12,-0.124C0.12,-0.152 0.129,-0.173 0.147,-0.187C0.165,-0.202 0.192,-0.212 0.228,-0.218L0.228,-0.083ZM0.391,-0.057C0.389,-0.056 0.386,-0.055 0.382,-0.054C0.378,-0.052 0.375,-0.052 0.372,-0.052C0.356,-0.052 0.347,-0.065 0.347,-0.092L0.347,-0.286C0.347,-0.314 0.341,-0.337 0.328,-0.356C0.315,-0.375 0.297,-0.389 0.274,-0.396C0.25,-0.404 0.224,-0.408 0.197,-0.408C0.167,-0.408 0.137,-0.404 0.104,-0.397C0.072,-0.39 0.042,-0.379 0.015,-0.366L0.014,-0.256L0.027,-0.256C0.035,-0.282 0.087,-0.393 0.176,-0.393C0.19,-0.393 0.203,-0.385 0.213,-0.37C0.223,-0.355 0.228,-0.335 0.228,-0.31L0.228,-0.231C0.167,-0.221 0.12,-0.209 0.088,-0.194C0.055,-0.18 0.033,-0.164 0.02,-0.148C0.007,-0.131 0,-0.112 0,-0.092C0,-0.071 0.006,-0.054 0.017,-0.038C0.028,-0.022 0.042,-0.011 0.057,-0.005C0.073,0.001 0.087,0.004 0.1,0.004C0.12,0.004 0.14,-0.001 0.161,-0.012C0.181,-0.023 0.204,-0.041 0.228,-0.067C0.231,-0.045 0.239,-0.027 0.251,-0.015C0.264,-0.002 0.28,0.004 0.302,0.004C0.321,0.004 0.339,-0.001 0.356,-0.011C0.373,-0.021 0.386,-0.034 0.397,-0.048L0.391,-0.057Z" style="fill:white;fill-rule:nonzero;"/>
        </g>
        <g transform="matrix(492.01,0,0,492.01,1073.18,2394.91)">
            <path d="M0.123,-0.315C0.149,-0.338 0.174,-0.35 0.199,-0.35C0.217,-0.35 0.232,-0.343 0.245,-0.329C0.257,-0.316 0.264,-0.296 0.264,-0.271L0.264,-0.005L0.384,-0.005L0.384,-0.272C0.384,-0.298 0.379,-0.322 0.369,-0.344C0.358,-0.365 0.344,-0.381 0.325,-0.392C0.306,-0.403 0.286,-0.408 0.265,-0.408C0.245,-0.408 0.224,-0.402 0.2,-0.392C0.177,-0.381 0.151,-0.36 0.123,-0.331L0.123,-0.409L0.072,-0.399C0.029,-0.389 -0,-0.35 0.002,-0.305C0.002,-0.284 0.003,-0.261 0.003,-0.238L0.003,-0.005L0.123,-0.005L0.123,-0.315Z" style="fill:white;fill-rule:nonzero;"/>
        </g>
        <g transform="matrix(492.01,0,0,492.01,1272.23,2394.91)">
            <path d="M0.26,-0.062C0.248,-0.056 0.235,-0.053 0.222,-0.053C0.194,-0.053 0.172,-0.066 0.155,-0.094C0.139,-0.122 0.131,-0.161 0.131,-0.209C0.131,-0.24 0.135,-0.27 0.143,-0.299C0.151,-0.328 0.162,-0.351 0.176,-0.368C0.191,-0.384 0.207,-0.392 0.225,-0.392C0.238,-0.392 0.25,-0.389 0.262,-0.381C0.274,-0.373 0.283,-0.364 0.291,-0.352L0.291,-0.086C0.283,-0.077 0.273,-0.069 0.26,-0.062ZM0.291,-0.425C0.291,-0.425 0.291,-0.402 0.291,-0.402C0.271,-0.405 0.252,-0.406 0.233,-0.406C0.2,-0.406 0.169,-0.401 0.14,-0.39C0.111,-0.378 0.086,-0.363 0.065,-0.342C0.045,-0.321 0.028,-0.297 0.017,-0.269C0.006,-0.241 0,-0.211 0,-0.179C0,-0.152 0.004,-0.126 0.013,-0.103C0.021,-0.08 0.033,-0.06 0.047,-0.044C0.062,-0.029 0.078,-0.017 0.097,-0.008C0.115,0 0.134,0.004 0.153,0.004C0.198,0.004 0.244,-0.02 0.291,-0.07L0.291,0.005L0.417,-0.024C0.413,-0.073 0.411,-0.124 0.411,-0.176L0.411,-0.605L0.361,-0.593C0.318,-0.583 0.288,-0.544 0.29,-0.5C0.291,-0.475 0.291,-0.45 0.291,-0.425Z" style="fill:white;fill-rule:nonzero;"/>
        </g>
        <g transform="matrix(492.01,0,0,492.01,1487.51,2394.91)">
            <path d="M0.15,-0.352C0.163,-0.379 0.18,-0.393 0.202,-0.393C0.217,-0.393 0.231,-0.385 0.242,-0.37C0.253,-0.355 0.26,-0.336 0.264,-0.315C0.267,-0.294 0.269,-0.261 0.267,-0.244C0.252,-0.242 0.15,-0.244 0.128,-0.244C0.13,-0.289 0.137,-0.325 0.15,-0.352ZM0.128,-0.231C0.128,-0.231 0.382,-0.231 0.382,-0.231C0.389,-0.286 0.378,-0.33 0.348,-0.361C0.319,-0.392 0.277,-0.408 0.223,-0.408C0.191,-0.408 0.161,-0.402 0.133,-0.391C0.106,-0.38 0.082,-0.364 0.062,-0.344C0.042,-0.324 0.027,-0.301 0.016,-0.274C0.005,-0.247 0,-0.219 0,-0.189C0,-0.16 0.005,-0.133 0.015,-0.109C0.026,-0.084 0.04,-0.064 0.059,-0.047C0.077,-0.03 0.099,-0.017 0.124,-0.009C0.149,0 0.175,0.004 0.203,0.004C0.275,0.004 0.333,-0.025 0.379,-0.083L0.372,-0.091C0.361,-0.08 0.346,-0.071 0.326,-0.065C0.307,-0.059 0.288,-0.056 0.27,-0.056C0.249,-0.056 0.23,-0.06 0.212,-0.068C0.194,-0.075 0.179,-0.087 0.166,-0.102C0.153,-0.117 0.143,-0.136 0.136,-0.158C0.129,-0.18 0.127,-0.204 0.128,-0.231Z" style="fill:white;fill-rule:nonzero;"/>
        </g>
        <g transform="matrix(492.01,0,0,492.01,1689.02,2394.91)">
            <path d="M0.124,-0.409L0.072,-0.399C0.029,-0.389 0,-0.35 0.002,-0.305C0.002,-0.284 0.003,-0.261 0.003,-0.238L0.003,-0.005L0.123,-0.005L0.123,-0.256C0.149,-0.315 0.242,-0.332 0.277,-0.3L0.277,-0.4C0.267,-0.405 0.253,-0.408 0.236,-0.408C0.215,-0.408 0.195,-0.398 0.178,-0.38C0.16,-0.361 0.142,-0.327 0.123,-0.278L0.124,-0.409Z" style="fill:white;fill-rule:nonzero;"/>
        </g>
        <g transform="matrix(400.943,0,0,400.943,1835.43,2394.91)">
            <path d="M0.04,-0.74L0.04,-0.73C0.067,-0.73 0.085,-0.708 0.085,-0.67L0.085,-0.116C0.085,0.006 0.161,-0 0.201,-0C0.212,-0 0.229,-0.002 0.241,-0.004L0.236,-0.048C0.224,-0.046 0.21,-0.045 0.202,-0.045C0.146,-0.045 0.14,-0.066 0.14,-0.116L0.14,-0.693C0.139,-0.721 0.116,-0.74 0.085,-0.74L0.04,-0.74Z" style="fill:white;fill-rule:nonzero;"/>
        </g>
        <g transform="matrix(374.16,0,0,374.16,1915.11,2394.91)">
            <path d="M0.525,-0L0.525,-0.53L0.47,-0.53L0.47,-0.21C0.47,-0.121 0.406,-0.04 0.297,-0.04C0.188,-0.04 0.14,-0.094 0.14,-0.189L0.14,-0.483C0.139,-0.511 0.116,-0.53 0.085,-0.53L0.04,-0.53L0.04,-0.52C0.067,-0.52 0.085,-0.498 0.085,-0.46L0.085,-0.189C0.085,-0.065 0.167,0.005 0.289,0.005C0.378,0.005 0.436,-0.036 0.471,-0.088L0.488,-0.01C0.49,-0 0.49,-0 0.5,-0L0.525,-0Z" style="fill:white;fill-rule:nonzero;"/>
        </g>
        <g transform="matrix(374.16,0,0,374.16,2118.19,2394.91)">
            <path d="M0.05,-0.057C0.095,-0.022 0.169,0.005 0.258,0.005C0.354,0.005 0.446,-0.032 0.446,-0.138C0.446,-0.249 0.348,-0.279 0.26,-0.293C0.187,-0.305 0.122,-0.322 0.122,-0.393C0.122,-0.453 0.189,-0.483 0.258,-0.483C0.327,-0.483 0.383,-0.461 0.413,-0.439L0.435,-0.481C0.394,-0.509 0.331,-0.53 0.258,-0.53C0.16,-0.53 0.066,-0.486 0.066,-0.39C0.066,-0.279 0.17,-0.25 0.26,-0.236C0.329,-0.225 0.39,-0.205 0.39,-0.135C0.39,-0.065 0.327,-0.042 0.259,-0.042C0.176,-0.042 0.11,-0.069 0.072,-0.098L0.05,-0.057Z" style="fill:white;fill-rule:nonzero;"/>
        </g>
        <g transform="matrix(374.16,0,0,374.16,2281.23,2394.91)">
            <path d="M0.02,-0.48L0.098,-0.48L0.098,-0.16C0.098,-0.035 0.171,-0 0.265,-0C0.294,-0 0.308,-0.003 0.318,-0.005L0.309,-0.05C0.299,-0.048 0.28,-0.047 0.265,-0.047C0.2,-0.047 0.153,-0.067 0.153,-0.16L0.153,-0.48L0.287,-0.48L0.287,-0.525L0.153,-0.525L0.153,-0.608C0.152,-0.636 0.129,-0.655 0.098,-0.655L0.053,-0.655L0.053,-0.645C0.08,-0.645 0.098,-0.623 0.098,-0.585L0.098,-0.525L0.067,-0.525L0.029,-0.51C0.02,-0.506 0.02,-0.506 0.02,-0.496L0.02,-0.48Z" style="fill:white;fill-rule:nonzero;"/>
        </g>
        <g transform="matrix(374.16,0,0,374.16,2378.79,2394.91)">
            <path d="M0.502,-0.336C0.502,-0.455 0.428,-0.53 0.283,-0.53C0.138,-0.53 0.065,-0.455 0.065,-0.336L0.065,-0.189C0.065,-0.07 0.138,0.005 0.283,0.005C0.383,0.005 0.446,-0.038 0.479,-0.095L0.445,-0.123C0.409,-0.072 0.357,-0.04 0.283,-0.04C0.174,-0.04 0.12,-0.1 0.12,-0.189L0.12,-0.24L0.492,-0.24C0.502,-0.24 0.502,-0.24 0.502,-0.25L0.502,-0.336ZM0.12,-0.336C0.12,-0.425 0.174,-0.485 0.283,-0.485C0.392,-0.485 0.447,-0.425 0.447,-0.336L0.447,-0.285L0.12,-0.285L0.12,-0.336Z" style="fill:white;fill-rule:nonzero;"/>
        </g>
        <g transform="matrix(374.16,0,0,374.16,2567.65,2394.91)">
            <path d="M0.04,-0.525L0.04,-0.515C0.067,-0.515 0.085,-0.493 0.085,-0.455L0.085,-0L0.14,-0L0.14,-0.315C0.14,-0.415 0.203,-0.482 0.299,-0.482C0.312,-0.482 0.328,-0.48 0.335,-0.477L0.344,-0.523C0.336,-0.526 0.324,-0.53 0.299,-0.53C0.223,-0.53 0.17,-0.493 0.138,-0.435L0.138,-0.478C0.137,-0.506 0.114,-0.525 0.083,-0.525L0.04,-0.525Z" style="fill:white;fill-rule:nonzero;"/>
        </g>
    </g>
    <g>
        <path d="M293.356,346.727L457.188,616.483L457.372,616.786L457.558,617.088L457.744,617.389L457.931,617.689L458.119,617.989L458.307,618.288L458.497,618.586L458.687,618.883L458.878,619.179L459.07,619.475L459.263,619.769L459.456,620.063L459.65,620.356L459.846,620.648L460.041,620.94L460.238,621.23L460.435,621.52L460.634,621.809L460.833,622.097L461.032,622.385L461.233,622.671L461.434,622.957L461.636,623.242L461.839,623.526L462.043,623.809L462.247,624.092L462.452,624.373L462.658,624.654L462.865,624.934L463.073,625.213L463.281,625.491L463.49,625.769L463.699,626.046C463.699,626.046 463.701,626.048 463.701,626.048C468.252,632.032 473.329,637.435 478.828,642.231L479.082,642.452L479.337,642.672L479.592,642.891L479.848,643.11L480.104,643.327L480.361,643.544L480.619,643.759L480.877,643.974L481.136,644.188L481.395,644.401L481.655,644.614L481.916,644.825L482.177,645.036L482.439,645.245L482.701,645.454L482.964,645.662L483.227,645.869L483.491,646.075L483.755,646.281L484.02,646.485L484.286,646.689L484.552,646.891L484.819,647.093L485.086,647.294L485.354,647.494L485.622,647.693L485.891,647.892L486.16,648.089L486.43,648.286L486.7,648.481L486.971,648.676L487.243,648.87L487.515,649.063L487.787,649.255L488.06,649.446L488.334,649.637L488.608,649.826L488.882,650.015L489.158,650.203L489.433,650.39L489.709,650.576L489.986,650.761L490.263,650.945L490.541,651.128L490.819,651.311L491.097,651.492L491.376,651.673L491.656,651.852L491.936,652.031L492.216,652.209L492.498,652.386L492.779,652.563L493.061,652.738L493.343,652.912L493.626,653.086L493.91,653.258L494.194,653.43L494.478,653.601L494.763,653.771L495.048,653.94L495.334,654.108L495.62,654.275L495.907,654.442L496.194,654.607L496.481,654.772L496.769,654.935L497.058,655.098L497.346,655.26L497.636,655.421L497.925,655.581L498.216,655.74L498.506,655.898L498.797,656.056L499.089,656.212L499.381,656.368L499.673,656.522L499.966,656.676L500.259,656.829L500.553,656.981L500.847,657.132L501.141,657.282L501.436,657.431L501.731,657.579L502.027,657.727L502.323,657.873L502.619,658.019L502.916,658.163L503.213,658.307L503.511,658.45L503.809,658.592L504.107,658.733L504.406,658.873L504.705,659.012L505.005,659.15L505.305,659.287L505.605,659.424L505.906,659.559L506.207,659.694L506.508,659.828L506.81,659.96L507.112,660.092L507.415,660.223L507.718,660.353L508.021,660.482L508.325,660.61L508.629,660.737L508.933,660.864L509.238,660.989L509.543,661.114L509.848,661.237L510.154,661.36L510.46,661.481L510.766,661.602L511.073,661.722L511.38,661.841L511.687,661.959L511.995,662.076L512.303,662.192L512.612,662.307L512.92,662.421L513.229,662.535L513.539,662.647L513.848,662.758L514.158,662.869L514.469,662.979L514.779,663.087L515.09,663.195L515.401,663.302L515.713,663.408L516.025,663.513L516.337,663.617L516.649,663.72L516.962,663.822L517.275,663.923L517.588,664.023L517.902,664.122L518.215,664.221L518.529,664.318L518.844,664.415L519.159,664.51L519.473,664.605L519.789,664.698L520.104,664.791L520.42,664.883L520.736,664.974L521.052,665.064L521.369,665.153L521.686,665.24L522.003,665.328L522.32,665.414L522.638,665.499L522.955,665.583L523.273,665.666L523.592,665.748L523.91,665.83L524.229,665.91L524.548,665.99L524.867,666.068L525.187,666.146L525.506,666.222L525.826,666.298L526.147,666.373L526.467,666.446L526.788,666.519L527.108,666.591L527.429,666.662L527.751,666.732L528.072,666.801L528.394,666.869L528.716,666.936L529.038,667.002L529.36,667.067L529.683,667.131L530.005,667.194L530.328,667.257L530.651,667.318L530.975,667.378L531.298,667.437L531.622,667.496L531.946,667.553L532.27,667.61L532.594,667.665L532.918,667.72L533.243,667.773L533.567,667.826L533.892,667.878L534.217,667.928L534.543,667.978L534.868,668.027L535.194,668.074L535.519,668.121L535.845,668.167L536.171,668.212L536.497,668.256L536.824,668.299L537.15,668.341L537.477,668.382L537.803,668.422L538.13,668.461L538.457,668.499L538.785,668.536L539.112,668.572L539.439,668.607L539.767,668.641L540.095,668.674L540.422,668.706L540.75,668.737L541.078,668.768L541.406,668.797L541.735,668.825C541.735,668.825 541.737,668.825 541.737,668.825C562.535,670.584 584.004,666.438 603.507,655.744L603.815,655.575L604.122,655.405L604.429,655.233L604.736,655.06L605.043,654.887L605.349,654.712L605.655,654.536L605.96,654.359L606.265,654.181L606.57,654.001L606.875,653.821L607.179,653.64L607.483,653.457C607.579,653.399 607.682,653.336 607.786,653.274C607.786,653.274 607.786,653.274 607.786,653.274L443.954,383.517C412.527,331.771 345.102,315.299 293.356,346.726C293.356,346.727 293.356,346.727 293.356,346.727ZM619.804,646.207C619.804,646.207 599.089,611.689 576.732,574.435C565.58,555.852 565.287,532.708 575.964,513.849C586.64,494.989 606.637,483.332 628.308,483.332L721.728,483.332C679.139,554.723 629.032,641.039 619.804,646.207ZM194.995,331.007L134.987,331.007L147.765,350.998L252.655,523.704C284.082,575.45 351.508,591.921 403.253,560.494C403.253,560.494 403.254,560.494 403.254,560.494C403.254,560.494 343.269,461.727 295.769,383.517C273.846,347.419 234.404,328.487 194.995,331.007ZM634.839,416.996C646.803,397.529 667.276,384.875 690.039,382.878C712.802,380.882 735.165,389.78 750.335,406.868C777.861,437.873 803.753,467.039 803.753,467.039L638.489,467.039C631.522,467.039 625.098,463.271 621.698,457.189C618.297,451.108 618.45,443.663 622.099,437.726C626.012,431.358 630.338,424.319 634.839,416.996Z" style="fill:white;"/>
    </g>
</svg>
